<svg id="Layer_1" data-name="Layer 1" xmlns="http://www.w3.org/2000/svg" viewBox="0 0 100 100"><defs><style>.cls-1{fill:#fff;}</style></defs><title>svgtst1</title><path class="cls-1" d="M470,412H370V312H470Zm-10-8.2c.54-7.61-2.13-13.56-8-17.59a65.84,65.84,0,0,0-13.66-7.15c-5-1.9-7.34-4.83-6.2-10.06.4-1.79,1.5-3.43,2.22-5.17,1.93-4.65,4.42-9.18,5.54-14,.92-4,.31-8.3.15-12.46a20,20,0,0,0-40,.25c-.1,3.5.08,7-.05,10.5a21.67,21.67,0,0,0,6.24,16.31c3.94,4.16,2.26,11.27-2.92,13.83s-10.33,4.75-15,7.88c-6,4.05-8.91,10-8.15,17.68Z" transform="translate(-370 -312)"/><path d="M460,403.8H380.19c-.76-7.68,2.14-13.63,8.15-17.68,4.65-3.13,9.91-5.39,15-7.88s6.86-9.67,2.92-13.83A21.67,21.67,0,0,1,400,348.1c.13-3.49-.05-7,.05-10.5a20,20,0,0,1,40-.25c.16,4.16.77,8.5-.15,12.46-1.12,4.84-3.61,9.37-5.54,14-.72,1.74-1.82,3.38-2.22,5.17-1.14,5.23,1.2,8.16,6.2,10.06A65.84,65.84,0,0,1,452,386.21C457.88,390.24,460.55,396.19,460,403.8Zm-75.28-4.18h70.74a13.07,13.07,0,0,0-6.77-10.87c-4.45-2.57-9.16-4.71-13.82-6.91-7.89-3.73-9.57-14-3.83-20.53a21.24,21.24,0,0,0,4.77-10.08c.81-4.87.51-10,.12-15a16,16,0,0,0-31.82.47c-.27,4.32-.76,8.81.11,13a28.19,28.19,0,0,0,5.24,11.9c4.68,5.66,3.6,16.14-2.93,19.48-4.74,2.43-9.68,4.49-14.29,7.13C388.07,390.59,385,394.07,384.73,399.62Z" transform="translate(-370 -312)"/><path class="cls-1" d="M384.73,399.62c.3-5.55,3.34-9,7.52-11.41,4.61-2.64,9.55-4.7,14.29-7.13,6.53-3.34,7.61-13.82,2.93-19.48a28.19,28.19,0,0,1-5.24-11.9c-.87-4.15-.38-8.64-.11-13a16,16,0,0,1,31.82-.47c.39,5,.69,10.09-.12,15a21.24,21.24,0,0,1-4.77,10.08c-5.74,6.51-4.06,16.8,3.83,20.53,4.66,2.2,9.37,4.34,13.82,6.91a13.07,13.07,0,0,1,6.77,10.87Z" transform="translate(-370 -312)"/></svg>